<svg id="Layer_1" data-name="Layer 1" xmlns="http://www.w3.org/2000/svg" viewBox="0 0 635.62 413.82"><defs><style>.cls-1{fill:#0f0f0f;stroke:#aa001d;}.cls-1,.cls-2,.cls-3{stroke-width:3px;}.cls-2,.cls-6,.cls-7{fill:#fff;}.cls-2,.cls-3{stroke:#000;}.cls-3{fill:none;}.cls-4,.cls-5,.cls-6{isolation:isolate;}.cls-5{font-size:55.68px;font-family:SegoeUI-Semibold, Segoe UI;font-weight:700;}.cls-6{font-size:38.28px;font-family:ArialMT, Arial;}</style></defs><title>CUHackingLogo</title><g id="g3338"><polygon id="svg_4" data-name="svg 4" class="cls-1" points="317.46 412.09 139.77 309.5 139.77 104.32 317.46 1.73 495.15 104.32 495.15 309.5 317.46 412.09"/><rect id="svg_2" data-name="svg 2" class="cls-2" x="87.79" y="179.77" width="459.33" height="98.83"/><line id="svg_12" data-name="svg 12" class="cls-3" x1="86.4" y1="184.64" y2="184.64"/><line id="svg_14" data-name="svg 14" class="cls-3" x1="2.88" y1="186.03" x2="87.79" y2="225.01"/><line id="svg_17" data-name="svg 17" class="cls-3" x1="86.45" y1="270.24" x2="0.05" y2="270.24"/><line id="svg_18" data-name="svg 18" class="cls-3" x1="1.39" y1="270.09" x2="87.9" y2="225.85"/><line id="svg_23" data-name="svg 23" class="cls-3" x1="635.56" y1="184.29" x2="549.16" y2="184.29"/><line id="svg_24" data-name="svg 24" class="cls-3" x1="548.46" y1="227.29" x2="634.97" y2="185.83"/><line id="svg_25" data-name="svg 25" class="cls-3" x1="634.22" y1="271.29" x2="547.82" y2="271.29"/><line id="svg_26" data-name="svg 26" class="cls-3" x1="547.16" y1="228.16" x2="634.88" y2="271.26"/></g><g id="text3358" class="cls-4"><text class="cls-5" transform="translate(180.96 248.9)">CUHacking</text></g><g id="text3362" class="cls-4"><text class="cls-6" transform="translate(270.26 337.06)">2017</text></g><g id="layer1"><g id="g3196"><path id="path2221" class="cls-7" d="M230.75,110.75a38.86,38.86,0,0,1,5.24-4.2c5.62-3.53,19-5.71,29.24-7.78,8.46-1.71,16.43-8.18,19.4-6.82,2.81,1.29,28.23,12.48,32.19,12.92s7.74-7.82,11.19-9.73,5.81-7.26,5.17-8.43-7.21,1.52.2-2.83c14.12-8.31,11.14-7.94,6-7.94s-5.05,1-1-2.93,21.43-3.16,13.84-6.17c-11.71-4.63-8.23-6.54-8.91-7.31s9.66,1.19,13.25.53c3.32-.61-1-1.52-2.81-2.64s-4.06-.73-4-1.85c.22-2.48-5.23-9.89-3.52-8s19,10.27,19.89,9.07c1-1.42-4.57-9.64-5-10.62s1.58-5,1.79-2.44c.18,2.25,17,19.13,15.6,19.78s-4.13,8.27-4.13,8.27-3.49,2.31-4.51,2.94-12.9,27.78-13.11,29.76,8.85,1,10.26,2.18.29,2.56,2,7.63,10.13,10.73,8.89,11.57-12-2.61-13.87-2.93-6.34.89-11.11,4.43-10.22,20.56-11.67,21.6-.7,4,2.62,6.87,6.83-.36,11.5,5.95c1.63,2.2-1.41,6.09-1.54,10.24,0,1.12-.29-2.56-.55-3.74s-2.47-.1-2.47-.1a24.94,24.94,0,0,0,2.59-2.87c.47-.81-.91-4.79-3-4.23-6.82,1.84-5.36,5.54-6.81,6.58s-.35,5-1.28,3,0-5.74,1.67-8.37-1.54-3.84-2.58-4.62c-1.8-1.36-3-.44-2.27,1.24,1,2.18.07,7.43-.24,5.73s-1.26-4.55-1.84-3.82c-.37.47-2.31,4.45-1.84,3.19,1.78-4.82.75-5.44-.62-7.34-.77,0-4.63,3.3-5.68,4.44-.36-1.21,4.29-6.91,4.55-7.52s-3-3.84-3-3.84a8.81,8.81,0,0,1-3,1.1c-1.15,0-3.5,3.56-3.8,4.56s-3.88,3-5.5,3.89-2.8,3.11-4.46,2.58-4.41,4.27-5.39,4.51-3.09-.93-4.19-1.28-7.42,4.12-8.18,4.15a5.85,5.85,0,0,1-3.17-1.66c-.68-.77-7,1.84-7.67,1.47s-2.09-.11-2.55-1.08-5.14,0-6.72.45-5.83-2.55-6.13-3.33,5.7.17,6.94-.66,10.25-6.71,13.48-8.42,12.26-7.58,13.49-8.42,1.45-4.6,1-5.57-3.79,1.52-2.47-.11,6.39-13.29,6.56-14.88-3.79-.25-5,.19a3.46,3.46,0,0,1-3.4-.27c-1.06-.75-4.64.57-8.56-.27s-16.24-10.26-17.39-12-7.12-.37-9.78-1.21-9.86-.71-13.89,0c-7.69,1.34-21.19.57-21.47-.52C229.17,112.48,229.81,111.68,230.75,110.75Zm104.36,35.06a9.41,9.41,0,0,0-1.42,1.79c-1.48.28.42.74,1.83,2.89,1.25,1.91.62,2.36,2.33-2.1.88-2.29,3.33-2.63-.81-3.13A2.1,2.1,0,0,0,335.11,145.81Z"/></g></g><path id="path3359" class="cls-7" d="M48.88,204.34c-18.87-8.7-34.52-16-34.8-16.31s15.52-.5,35.09-.5H84.76v16.39c0,9-.36,16.35-.79,16.31S67.74,213,48.88,204.34Z"/><path id="path3361" class="cls-7" d="M16.57,265.44c5.51-3.14,67-34.56,67.69-34.56.27,0,.5,8.33.5,18.5v18.5H12.35l4.23-2.41Z"/><path id="path3363" class="cls-7" d="M549.91,205V186.48h38.23c21,0,38,.22,37.73.5-.59.59-70.12,34.14-73.59,35.51l-2.38.94V205Z"/><path id="path3365" class="cls-7" d="M549.91,251c0-9.88.36-17.95.79-17.92s17,8.07,36.74,17.88l35.94,17.82-36.74.1-36.74.1V251Z"/></svg>